<svg width="304" height="236" viewBox="0 0 304 236" fill="none" xmlns="http://www.w3.org/2000/svg">
<rect x="8" y="8.00446" width="288" height="219.354" rx="7" stroke="black" stroke-width="16"/>
<path d="M5 207.791L75.8155 133.821C79.6348 129.832 85.827 129.832 89.6462 133.821L94.8176 139.223L17.0868 220.416L5 207.791Z" fill="black"/>
<path d="M114 181.118L184.816 107.148C188.635 103.158 194.827 103.158 198.646 107.148L203.818 112.549L126.087 193.743L114 181.118Z" fill="black"/>
<path d="M77.1714 134.306C80.9906 130.316 87.1829 130.316 91.0021 134.306L135.953 181.259L123.866 193.884L72 139.708L77.1714 134.306Z" fill="black"/>
<ellipse cx="243.5" cy="64.9321" rx="22.5" ry="23.5022" fill="black"/>
<path d="M185.171 107.148C188.991 103.158 195.183 103.158 199.002 107.148L298.762 211.351L286.675 223.977L180 112.549L185.171 107.148Z" fill="black"/>
</svg>
